HIERARCHY
ROOT joint_Root
{
	OFFSET 0.0 0.0 0.0
	CHANNELS 6 Xposition Yposition Zposition Zrotation Xrotation Yrotation 
	JOINT Hips
	{
		OFFSET -17.1583 93.1646 452.98
		CHANNELS 6 Xposition Yposition Zposition Zrotation Xrotation Yrotation 
		JOINT Spine
		{
			OFFSET 15.7357 0.0 0.0
			CHANNELS 6 Xposition Yposition Zposition Zrotation Xrotation Yrotation 
			JOINT Chest
			{
				OFFSET 8.98455 -0.406207 0.0
				CHANNELS 6 Xposition Yposition Zposition Zrotation Xrotation Yrotation 
				JOINT Neck
				{
					OFFSET 16.3773 0.0 0.0
					CHANNELS 6 Xposition Yposition Zposition Zrotation Xrotation Yrotation 
					JOINT Head
					{
						OFFSET 6.45672 0.0 0.0
						CHANNELS 6 Xposition Yposition Zposition Zrotation Xrotation Yrotation 
						End Site
						{
							OFFSET 0.0 0.0 0.0
						}
					}
				}
				JOINT Shoulder_L
				{
					OFFSET 12.9942 -0.242716 4.98039
					CHANNELS 6 Xposition Yposition Zposition Zrotation Xrotation Yrotation 
					JOINT UpperArm_L
					{
						OFFSET 5.34809 0.0 0.0
						CHANNELS 6 Xposition Yposition Zposition Zrotation Xrotation Yrotation 
						JOINT LowerArm_L
						{
							OFFSET 24.3286 1.87007e-05 0.0
							CHANNELS 6 Xposition Yposition Zposition Zrotation Xrotation Yrotation 
							JOINT Hand_L
							{
								OFFSET 22.2916 0.0 0.0
								CHANNELS 6 Xposition Yposition Zposition Zrotation Xrotation Yrotation 
								End Site
								{
									OFFSET 0.0 0.0 0.0
								}
							}
						}
					}
				}
				JOINT Shoulder_R
				{
					OFFSET 12.9945 -0.242716 -4.98039
					CHANNELS 6 Xposition Yposition Zposition Zrotation Xrotation Yrotation 
					JOINT UpperArm_R
					{
						OFFSET -5.34813 0.0 0.0
						CHANNELS 6 Xposition Yposition Zposition Zrotation Xrotation Yrotation 
						JOINT LowerArm_R
						{
							OFFSET -24.3289 0.000322201 0.0
							CHANNELS 6 Xposition Yposition Zposition Zrotation Xrotation Yrotation 
							JOINT Hand_R
							{
								OFFSET -22.2915 -0.000108084 0.0
								CHANNELS 6 Xposition Yposition Zposition Zrotation Xrotation Yrotation 
								End Site
								{
									OFFSET 0.0 0.0 0.0
								}
							}
						}
					}
				}
			}
		}
		JOINT UpperLeg_L
		{
			OFFSET -2.19248 -6.46944 0.0
			CHANNELS 6 Xposition Yposition Zposition Zrotation Xrotation Yrotation 
			JOINT LowerLeg_L
			{
				OFFSET 39.0811 0.0 -1.23785e-05
				CHANNELS 6 Xposition Yposition Zposition Zrotation Xrotation Yrotation 
				JOINT Foot_L
				{
					OFFSET 40.9854 0.0 -1.26872e-05
					CHANNELS 6 Xposition Yposition Zposition Zrotation Xrotation Yrotation 
					JOINT Toes_L
					{
						OFFSET 11.7543 0.0 0.0
						CHANNELS 6 Xposition Yposition Zposition Zrotation Xrotation Yrotation 
						End Site
						{
							OFFSET 0.0 0.0 0.0
						}
					}
				}
			}
		}
		JOINT UpperLeg_R
		{
			OFFSET -2.19251 6.46944 0.0
			CHANNELS 6 Xposition Yposition Zposition Zrotation Xrotation Yrotation 
			JOINT LowerLeg_R
			{
				OFFSET -39.0811 -0.00228153 -0.0401928
				CHANNELS 6 Xposition Yposition Zposition Zrotation Xrotation Yrotation 
				JOINT Foot_R
				{
					OFFSET -40.9854 0.0 0.0
					CHANNELS 6 Xposition Yposition Zposition Zrotation Xrotation Yrotation 
					JOINT Toes_R
					{
						OFFSET -11.7543 0.0 0.0
						CHANNELS 6 Xposition Yposition Zposition Zrotation Xrotation Yrotation 
						End Site
						{
							OFFSET 0.0 0.0 0.0
						}
					}
				}
			}
		}
	}
}
MOTION
Frames:	4
Frame Time:	0.0333333
0.000000 0.000000 0.000000 0.000000 0.000000 -0.000000 -1.388670 91.879000 -0.054653 84.663400 -1.693640 6.329910 15.735700 0.000005 -0.000001 84.947100 85.770000 -82.751800 8.984550 -0.406207 -0.000000 0.681868 -0.880491 4.392600 16.377300 -0.000001 -0.000001 10.154100 2.653480 -1.252280 6.456720 -0.000001 -0.000000 -4.606060 1.858440 5.197640 12.994200 -0.242716 4.980390 -93.061600 8.830310 -70.790600 5.348090 -0.000007 -0.000001 -72.868500 22.186400 0.450128 24.328600 0.000019 0.000005 11.877900 24.056900 -27.292200 22.291600 -0.000001 0.000005 -7.380530 5.042280 6.407000 12.994500 -0.242716 -4.980390 87.397400 7.164850 -69.976000 -5.348130 -0.000001 -0.000004 -68.910300 32.850400 -5.380220 -24.328900 0.000322 -0.000009 1.280610 4.883370 -14.725200 -22.291500 -0.000108 -0.000004 -2.409510 5.294630 0.222606 -2.192480 -6.469440 -0.000000 -175.299000 2.084380 -0.714242 39.081100 -0.000007 -0.000012 0.400481 -0.754788 27.950900 40.985400 -0.000006 -0.000013 2.058490 3.152800 -76.382400 11.754300 -0.000000 0.000003 -0.000609 0.177321 -9.384180 -2.192510 6.469440 -0.000001 -172.260000 7.154050 -174.294000 -39.081100 -0.002282 -0.040193 0.124307 -0.397616 16.923200 -40.985400 0.000008 0.000006 3.629650 2.847900 -71.994600 -11.754300 -0.000006 -0.000006 -0.011718 0.283720 -5.042910
0.000000 0.000000 0.000000 0.000000 0.000000 -0.000000 -1.423170 91.878600 -0.030292 84.670100 -1.717430 6.284320 15.735700 0.000005 -0.000001 84.915500 85.772900 -82.709900 8.984550 -0.406207 -0.000000 0.675967 -0.885380 4.413140 16.377300 -0.000001 -0.000001 10.052200 2.591510 -1.297800 6.456720 -0.000001 -0.000000 -4.714290 1.770270 5.037300 12.994200 -0.242716 4.980390 -93.107200 8.937130 -70.739000 5.348090 -0.000007 -0.000001 -72.497900 21.603200 0.398879 24.328600 0.000019 0.000005 12.532200 23.655400 -28.986400 22.291600 -0.000001 0.000005 -7.803040 5.032780 6.614900 12.994500 -0.242716 -4.980390 87.399000 7.152890 -69.956700 -5.348130 -0.000001 -0.000004 -68.926700 32.757500 -5.290320 -24.328900 0.000322 -0.000009 1.259920 4.816990 -14.688200 -22.291500 -0.000108 -0.000004 -2.383760 5.292840 0.272164 -2.192480 -6.469440 -0.000000 -175.274000 2.069910 -0.718824 39.081100 -0.000007 -0.000012 0.399679 -0.754072 27.925800 40.985400 -0.000006 -0.000013 2.034810 3.168270 -76.402200 11.754300 -0.000000 0.000003 -0.000603 0.177219 -9.388320 -2.192510 6.469440 -0.000001 -172.221000 7.074530 -174.312000 -39.081100 -0.002282 -0.040193 0.124116 -0.397514 16.902200 -40.985400 0.000008 0.000006 3.621860 2.791690 -72.017200 -11.754300 -0.000006 -0.000006 -0.011975 0.285510 -4.969570
0.000000 0.000000 0.000000 0.000000 0.000000 -0.000000 -1.483200 91.879700 -0.015534 84.685500 -1.613770 6.202120 15.735700 0.000005 -0.000001 84.550900 85.769600 -82.336800 8.984550 -0.406207 -0.000000 0.678635 -0.940025 4.430560 16.377300 -0.000001 -0.000001 9.858880 2.464280 -1.328580 6.456720 -0.000001 -0.000000 -4.897840 1.605830 4.670110 12.994200 -0.242716 4.980390 -93.174900 9.104220 -70.681300 5.348090 -0.000007 -0.000001 -71.913500 20.505200 0.331363 24.328600 0.000019 0.000005 13.803900 23.304200 -31.841800 22.291600 -0.000001 0.000005 -9.028300 5.021960 6.851740 12.994500 -0.242716 -4.980390 87.394200 7.136750 -69.881100 -5.348130 -0.000001 -0.000004 -68.922200 32.685100 -5.288040 -24.328900 0.000322 -0.000009 1.280340 4.897330 -14.682200 -22.291500 -0.000108 -0.000004 -2.383480 5.291930 0.297458 -2.192480 -6.469440 -0.000000 -175.250000 2.098310 -0.808325 39.081100 -0.000007 -0.000012 0.400593 -0.755995 27.919600 40.985400 -0.000006 -0.000013 2.002770 3.200340 -76.423500 11.754300 -0.000000 0.000003 -0.000620 0.177475 -9.377930 -2.192510 6.469440 -0.000001 -172.239000 7.274560 -174.384000 -39.081100 -0.002282 -0.040193 0.121307 -0.388596 16.888800 -40.985400 0.000008 0.000006 3.539190 2.942560 -71.968900 -11.754300 -0.000006 -0.000006 -0.011436 0.281739 -5.124020
0.000000 0.000000 0.000000 0.000000 0.000000 -0.000000 -1.535330 91.876900 0.010917 84.693900 -1.580550 6.085360 15.735700 0.000005 -0.000001 84.540500 85.787000 -82.307600 8.984550 -0.406207 -0.000000 0.644058 -0.940079 4.467760 16.377300 -0.000001 -0.000001 9.624480 2.265650 -1.431660 6.456720 -0.000001 -0.000000 -5.153120 1.346610 4.139280 12.994200 -0.242716 4.980390 -93.254600 9.257540 -70.532600 5.348090 -0.000007 -0.000001 -71.210000 19.457600 0.574629 24.328600 0.000019 0.000005 15.412300 22.007100 -36.341100 22.291600 -0.000001 0.000005 -9.853260 4.982950 7.680330 12.994500 -0.242716 -4.980390 87.373400 7.170290 -69.820300 -5.348130 -0.000001 -0.000004 -68.840600 32.688300 -5.249110 -24.328900 0.000322 -0.000009 1.263620 4.805940 -14.761800 -22.291500 -0.000108 -0.000004 -2.410800 5.293400 0.256587 -2.192480 -6.469440 -0.000000 -175.204000 2.092640 -0.930462 39.081100 -0.000007 -0.000012 0.398307 -0.751335 27.930500 40.985400 -0.000006 -0.000013 1.977070 3.265920 -76.433500 11.754300 -0.000000 0.000003 -0.000729 0.179101 -9.311880 -2.192510 6.469440 -0.000001 -172.144000 7.127670 -174.449000 -39.081100 -0.002282 -0.040193 0.123967 -0.399350 16.809300 -40.985400 0.000008 0.000006 3.662770 2.741680 -71.973500 -11.754300 -0.000006 -0.000006 -0.011773 0.284105 -5.027130
